<?xml version="1.0" encoding="UTF-8" standalone="no"?>
<svg width="142px" height="48px" viewBox="0 0 142 48" version="1.1" xmlns="http://www.w3.org/2000/svg" xmlns:xlink="http://www.w3.org/1999/xlink" xmlns:sketch="http://www.bohemiancoding.com/sketch/ns">
    <!-- Generator: Sketch 3.3.3 (12081) - http://www.bohemiancoding.com/sketch -->
    <title>app-store</title>
    <desc>Created with Sketch.</desc>
    <defs></defs>
    <g id="Symbols" stroke="none" stroke-width="1" fill="none" fill-rule="evenodd" sketch:type="MSPage">
        <g id="Notes" sketch:type="MSArtboardGroup" transform="translate(-390.000000, -466.000000)">
            <g id="Apple-App-Store---Large-+-Google-Play---Large" sketch:type="MSLayerGroup" transform="translate(390.000000, 464.000000)">
                <g id="Apple-App-Store---Large" transform="translate(0.000000, 2.000000)" sketch:type="MSShapeGroup">
                    <rect id="Rectangle-3" stroke="#000000" fill="#000000" x="1" y="1" width="140" height="46" rx="4"></rect>
                    <path d="M14.2924099,9 C13.0263469,9 12,10.1216205 12,11.5106012 L12,37.4893988 C12,38.8759656 13.0252116,40 14.2924099,40 L25.7075901,40 C26.9736531,40 28,38.8783795 28,37.4893988 L28,11.5106012 C28,10.1240344 26.9747884,9 25.7075901,9 L14.2924099,9 L14.2924099,9 Z M13.5,13.0655738 L13.5,35.9344262 L26.5,35.9344262 L26.5,13.0655738 L13.5,13.0655738 L13.5,13.0655738 Z M20,38.9836066 C20.5522847,38.9836066 21,38.5285517 21,37.9672131 C21,37.4058745 20.5522847,36.9508197 20,36.9508197 C19.4477153,36.9508197 19,37.4058745 19,37.9672131 C19,38.5285517 19.4477153,38.9836066 20,38.9836066 L20,38.9836066 L20,38.9836066 Z M18,11.0327869 C18,11.3134562 18.171875,11.5409836 18.398159,11.5409836 L21.601841,11.5409836 C21.8217381,11.5409836 22,11.3052478 22,11.0327869 C22,10.7521176 21.828125,10.5245902 21.601841,10.5245902 L18.398159,10.5245902 C18.1782619,10.5245902 18,10.7603259 18,11.0327869 L18,11.0327869 L18,11.0327869 Z" id="iPhone-Vector" fill="#FFFFFF"></path>
                    <path d="M40.1905641,15.6867692 L41.0545641,18.2307692 L42.1705641,18.2307692 L39.4105641,10.1427692 L38.1505641,10.1427692 L35.4025641,18.2307692 L36.4825641,18.2307692 L37.3225641,15.6867692 L40.1905641,15.6867692 Z M37.5385641,14.8707692 L38.3305641,12.5307692 C38.4865641,12.0387692 38.6185641,11.5467692 38.7385641,11.0667692 L38.7625641,11.0667692 C38.8825641,11.5347692 39.0025641,12.0147692 39.1825641,12.5427692 L39.9745641,14.8707692 L37.5385641,14.8707692 Z M42.5905641,12.4227692 L44.7985641,18.2307692 L45.8065641,18.2307692 L48.0865641,12.4227692 L46.9825641,12.4227692 L45.8545641,15.6867692 C45.6625641,16.2147692 45.4945641,16.6947692 45.3625641,17.1747692 L45.3265641,17.1747692 C45.2065641,16.6947692 45.0505641,16.2147692 44.8585641,15.6867692 L43.7185641,12.4227692 L42.5905641,12.4227692 Z M53.4505641,18.2307692 C53.3785641,17.8347692 53.3545641,17.3427692 53.3545641,16.8387692 L53.3545641,14.6667692 C53.3545641,13.5027692 52.9225641,12.2907692 51.1465641,12.2907692 C50.4145641,12.2907692 49.7185641,12.4947692 49.2385641,12.8067692 L49.4785641,13.5027692 C49.8865641,13.2387692 50.4505641,13.0707692 50.9905641,13.0707692 C52.1785641,13.0707692 52.3105641,13.9347692 52.3105641,14.4147692 L52.3105641,14.5347692 C50.0665641,14.5227692 48.8185641,15.2907692 48.8185641,16.6947692 C48.8185641,17.5347692 49.4185641,18.3627692 50.5945641,18.3627692 C51.4225641,18.3627692 52.0465641,17.9547692 52.3705641,17.4987692 L52.4065641,17.4987692 L52.4905641,18.2307692 L53.4505641,18.2307692 Z M52.3345641,16.2747692 C52.3345641,16.3827692 52.3105641,16.5027692 52.2745641,16.6107692 C52.1065641,17.1027692 51.6265641,17.5827692 50.8705641,17.5827692 C50.3305641,17.5827692 49.8745641,17.2587692 49.8745641,16.5747692 C49.8745641,15.4467692 51.1825641,15.2427692 52.3345641,15.2667692 L52.3345641,16.2747692 Z M56.3545641,18.2307692 L56.3545641,12.4227692 L55.2985641,12.4227692 L55.2985641,18.2307692 L56.3545641,18.2307692 Z M55.8265641,10.1307692 C55.4425641,10.1307692 55.1665641,10.4187692 55.1665641,10.7907692 C55.1665641,11.1507692 55.4305641,11.4387692 55.8025641,11.4387692 C56.2225641,11.4387692 56.4865641,11.1507692 56.4745641,10.7907692 C56.4745641,10.4187692 56.2225641,10.1307692 55.8265641,10.1307692 L55.8265641,10.1307692 Z M58.3465641,18.2307692 L59.4025641,18.2307692 L59.4025641,9.71076923 L58.3465641,9.71076923 L58.3465641,18.2307692 Z M65.5945641,18.2307692 C65.5225641,17.8347692 65.4985641,17.3427692 65.4985641,16.8387692 L65.4985641,14.6667692 C65.4985641,13.5027692 65.0665641,12.2907692 63.2905641,12.2907692 C62.5585641,12.2907692 61.8625641,12.4947692 61.3825641,12.8067692 L61.6225641,13.5027692 C62.0305641,13.2387692 62.5945641,13.0707692 63.1345641,13.0707692 C64.3225641,13.0707692 64.4545641,13.9347692 64.4545641,14.4147692 L64.4545641,14.5347692 C62.2105641,14.5227692 60.9625641,15.2907692 60.9625641,16.6947692 C60.9625641,17.5347692 61.5625641,18.3627692 62.7385641,18.3627692 C63.5665641,18.3627692 64.1905641,17.9547692 64.5145641,17.4987692 L64.5505641,17.4987692 L64.6345641,18.2307692 L65.5945641,18.2307692 Z M64.4785641,16.2747692 C64.4785641,16.3827692 64.4545641,16.5027692 64.4185641,16.6107692 C64.2505641,17.1027692 63.7705641,17.5827692 63.0145641,17.5827692 C62.4745641,17.5827692 62.0185641,17.2587692 62.0185641,16.5747692 C62.0185641,15.4467692 63.3265641,15.2427692 64.4785641,15.2667692 L64.4785641,16.2747692 Z M68.3065641,18.2307692 L68.3545641,17.2707692 L68.3905641,17.2707692 C68.8225641,18.0387692 69.4945641,18.3627692 70.3345641,18.3627692 C71.6305641,18.3627692 72.9385641,17.3307692 72.9385641,15.2547692 C72.9505641,13.4907692 71.9305641,12.2907692 70.4905641,12.2907692 C69.5545641,12.2907692 68.8825641,12.7107692 68.5105641,13.3587692 L68.4865641,13.3587692 L68.4865641,9.71076923 L67.4425641,9.71076923 L67.4425641,16.7307692 C67.4425641,17.2467692 67.4185641,17.8347692 67.3945641,18.2307692 L68.3065641,18.2307692 Z M68.4865641,14.8587692 C68.4865641,14.6907692 68.5225641,14.5467692 68.5465641,14.4267692 C68.7625641,13.6227692 69.4345641,13.1307692 70.1545641,13.1307692 C71.2825641,13.1307692 71.8825641,14.1267692 71.8825641,15.2907692 C71.8825641,16.6227692 71.2225641,17.5227692 70.1185641,17.5227692 C69.3505641,17.5227692 68.7385641,17.0187692 68.5345641,16.2867692 C68.5105641,16.1667692 68.4865641,16.0347692 68.4865641,15.9027692 L68.4865641,14.8587692 Z M74.5105641,18.2307692 L75.5665641,18.2307692 L75.5665641,9.71076923 L74.5105641,9.71076923 L74.5105641,18.2307692 Z M82.2505641,15.5187692 C82.2625641,15.4107692 82.2865641,15.2427692 82.2865641,15.0267692 C82.2865641,13.9587692 81.7825641,12.2907692 79.8865641,12.2907692 C78.1945641,12.2907692 77.1625641,13.6707692 77.1625641,15.4227692 C77.1625641,17.1747692 78.2305641,18.3507692 80.0185641,18.3507692 C80.9425641,18.3507692 81.5785641,18.1587692 81.9505641,17.9907692 L81.7705641,17.2347692 C81.3745641,17.4027692 80.9185641,17.5347692 80.1625641,17.5347692 C79.1065641,17.5347692 78.1945641,16.9467692 78.1705641,15.5187692 L82.2505641,15.5187692 Z M78.1825641,14.7627692 C78.2665641,14.0307692 78.7345641,13.0467692 79.8025641,13.0467692 C80.9905641,13.0467692 81.2785641,14.0907692 81.2665641,14.7627692 L78.1825641,14.7627692 Z M89.078564,12.2907692 C87.470564,12.2907692 86.198564,13.4307692 86.198564,15.3747692 C86.198564,17.2107692 87.410564,18.3627692 88.982564,18.3627692 C90.386564,18.3627692 91.874564,17.4267692 91.874564,15.2787692 C91.874564,13.5027692 90.746564,12.2907692 89.078564,12.2907692 L89.078564,12.2907692 Z M89.054564,13.0827692 C90.302564,13.0827692 90.794564,14.3307692 90.794564,15.3147692 C90.794564,16.6227692 90.038564,17.5707692 89.030564,17.5707692 C87.998564,17.5707692 87.266564,16.6107692 87.266564,15.3387692 C87.266564,14.2347692 87.806564,13.0827692 89.054564,13.0827692 L89.054564,13.0827692 Z M93.446564,18.2307692 L94.502564,18.2307692 L94.502564,14.7387692 C94.502564,14.5587692 94.526564,14.3787692 94.574564,14.2467692 C94.754564,13.6587692 95.294564,13.1667692 95.990564,13.1667692 C96.986564,13.1667692 97.334564,13.9467692 97.334564,14.8827692 L97.334564,18.2307692 L98.390564,18.2307692 L98.390564,14.7627692 C98.390564,12.7707692 97.142564,12.2907692 96.338564,12.2907692 C95.378564,12.2907692 94.706564,12.8307692 94.418564,13.3827692 L94.394564,13.3827692 L94.334564,12.4227692 L93.398564,12.4227692 C93.434564,12.9027692 93.446564,13.3947692 93.446564,13.9947692 L93.446564,18.2307692 Z M103.370564,11.0307692 L103.370564,12.4227692 L102.470564,12.4227692 L102.470564,13.2267692 L103.370564,13.2267692 L103.370564,16.3947692 C103.370564,17.0787692 103.478564,17.5947692 103.778564,17.9067692 C104.030564,18.1947692 104.426564,18.3507692 104.918564,18.3507692 C105.326564,18.3507692 105.650564,18.2907692 105.854564,18.2067692 L105.806564,17.4147692 C105.674564,17.4507692 105.470564,17.4867692 105.194564,17.4867692 C104.606564,17.4867692 104.402564,17.0787692 104.402564,16.3587692 L104.402564,13.2267692 L105.914564,13.2267692 L105.914564,12.4227692 L104.402564,12.4227692 L104.402564,10.7547692 L103.370564,11.0307692 Z M107.342564,18.2307692 L108.398564,18.2307692 L108.398564,14.7267692 C108.398564,14.5227692 108.410564,14.3667692 108.470564,14.2227692 C108.662564,13.6467692 109.202564,13.1667692 109.886564,13.1667692 C110.882564,13.1667692 111.230564,13.9587692 111.230564,14.8947692 L111.230564,18.2307692 L112.286564,18.2307692 L112.286564,14.7747692 C112.286564,12.7707692 111.038564,12.2907692 110.258564,12.2907692 C109.862564,12.2907692 109.490564,12.4107692 109.178564,12.5907692 C108.854564,12.7707692 108.590564,13.0347692 108.422564,13.3347692 L108.398564,13.3347692 L108.398564,9.71076923 L107.342564,9.71076923 L107.342564,18.2307692 Z M118.910564,15.5187692 C118.922564,15.4107692 118.946564,15.2427692 118.946564,15.0267692 C118.946564,13.9587692 118.442564,12.2907692 116.546564,12.2907692 C114.854564,12.2907692 113.822564,13.6707692 113.822564,15.4227692 C113.822564,17.1747692 114.890564,18.3507692 116.678564,18.3507692 C117.602564,18.3507692 118.238564,18.1587692 118.610564,17.9907692 L118.430564,17.2347692 C118.034564,17.4027692 117.578564,17.5347692 116.822564,17.5347692 C115.766564,17.5347692 114.854564,16.9467692 114.830564,15.5187692 L118.910564,15.5187692 Z M114.842564,14.7627692 C114.926564,14.0307692 115.394564,13.0467692 116.462564,13.0467692 C117.650564,13.0467692 117.938564,14.0907692 117.926564,14.7627692 L114.842564,14.7627692 Z" id="Available-on-the" fill="#FFFFFF"></path>
                    <path d="M44.8022408,32.2270847 L46.4493558,37.0769231 L48.5768792,37.0769231 L43.3152621,21.6580973 L40.9132195,21.6580973 L35.674479,37.0769231 L37.7333727,37.0769231 L39.3347344,32.2270847 L44.8022408,32.2270847 Z M39.7465131,30.6714762 L41.2563684,26.2105399 C41.5537642,25.2725995 41.8054068,24.3346591 42.0341727,23.4195952 L42.0799259,23.4195952 C42.3086919,24.3117825 42.5374578,25.2268463 42.8806068,26.2334165 L44.3904621,30.6714762 L39.7465131,30.6714762 Z M49.8944027,41.6064891 L51.8846666,41.6064891 L51.8846666,35.5899443 L51.9304198,35.5899443 C52.5938411,36.6880209 53.8749305,37.3285656 55.3390326,37.3285656 C57.9469646,37.3285656 60.3718838,35.3611784 60.3718838,31.3806507 C60.3718838,28.017791 58.3587433,25.753008 55.6821816,25.753008 C53.8749305,25.753008 52.5709645,26.5536889 51.747407,27.903408 L51.7016538,27.903408 L51.6101475,26.0046506 L49.8028964,26.0046506 C49.8486496,27.056974 49.8944027,28.2008038 49.8944027,29.6191528 L49.8944027,41.6064891 Z M51.8846666,30.6714762 C51.8846666,30.396957 51.9532964,30.0995613 52.0219262,29.8479187 C52.4108283,28.3380634 53.6919177,27.3543697 55.0645135,27.3543697 C57.1920369,27.3543697 58.3587433,29.2531272 58.3587433,31.472157 C58.3587433,34.0114592 57.1234071,35.7500805 54.9958837,35.7500805 C53.5546581,35.7500805 52.3421985,34.7892635 51.976173,33.3937911 C51.9304198,33.1421486 51.8846666,32.8676294 51.8846666,32.5702336 L51.8846666,30.6714762 Z M62.101186,41.6064891 L64.0914499,41.6064891 L64.0914499,35.5899443 L64.1372031,35.5899443 C64.8006244,36.6880209 66.0817138,37.3285656 67.5458159,37.3285656 C70.1537479,37.3285656 72.578667,35.3611784 72.578667,31.3806507 C72.578667,28.017791 70.5655266,25.753008 67.8889648,25.753008 C66.0817138,25.753008 64.7777478,26.5536889 63.9541903,27.903408 L63.9084371,27.903408 L63.8169307,26.0046506 L62.0096797,26.0046506 C62.0554328,27.056974 62.101186,28.2008038 62.101186,29.6191528 L62.101186,41.6064891 Z M64.0914499,30.6714762 C64.0914499,30.396957 64.1600797,30.0995613 64.2287095,29.8479187 C64.6176116,28.3380634 65.898701,27.3543697 67.2712968,27.3543697 C69.3988202,27.3543697 70.5655266,29.2531272 70.5655266,31.472157 C70.5655266,34.0114592 69.3301904,35.7500805 67.202667,35.7500805 C65.7614414,35.7500805 64.5489818,34.7892635 64.1829563,33.3937911 C64.1372031,33.1421486 64.0914499,32.8676294 64.0914499,32.5702336 L64.0914499,30.6714762 Z M77.6386333,36.3219954 C78.4621908,36.8710337 80.0864291,37.305689 81.5734079,37.305689 C85.2107866,37.305689 86.9722845,35.2467954 86.9722845,32.8676294 C86.9722845,30.6028464 85.645442,29.3446336 83.03751,28.3380634 C80.9099866,27.5145059 79.9720461,26.8053314 79.9720461,25.3641059 C79.9720461,24.3117825 80.772727,23.0535697 82.8773738,23.0535697 C84.2728462,23.0535697 85.302293,23.5111016 85.8055781,23.7856208 L86.3546164,22.1613824 C85.6683186,21.7724803 84.5244888,21.4064548 82.9460036,21.4064548 C79.9491695,21.4064548 77.9589057,23.1908293 77.9589057,25.5928718 C77.9589057,27.7661485 79.5145142,29.0701144 82.0309398,29.9623017 C84.11271,30.7629826 84.9362675,31.58654 84.9362675,33.0277656 C84.9362675,34.5833741 83.7466845,35.6585741 81.7106674,35.6585741 C80.3380717,35.6585741 79.0341057,35.2010422 78.1419185,34.6520039 L77.6386333,36.3219954 Z M89.2048719,23.3509654 L89.2048719,26.0046506 L87.4891272,26.0046506 L87.4891272,27.5373825 L89.2048719,27.5373825 L89.2048719,33.5768039 C89.2048719,34.8807699 89.4107613,35.8644635 89.9826762,36.459255 C90.4630847,37.0082933 91.2180124,37.305689 92.1559528,37.305689 C92.9337571,37.305689 93.5514252,37.1913061 93.9403273,37.0311699 L93.8488209,35.5213145 C93.5971784,35.5899443 93.2082763,35.6585741 92.6821145,35.6585741 C91.5611613,35.6585741 91.1722592,34.8807699 91.1722592,33.5081741 L91.1722592,27.5373825 L94.0547103,27.5373825 L94.0547103,26.0046506 L91.1722592,26.0046506 L91.1722592,22.8248037 L89.2048719,23.3509654 Z M100.061936,25.753008 C96.9964722,25.753008 94.571553,27.9262846 94.571553,31.6322932 C94.571553,35.1324124 96.8820892,37.3285656 99.8789233,37.3285656 C102.555485,37.3285656 105.392183,35.5441911 105.392183,31.4492804 C105.392183,28.0635442 103.241783,25.753008 100.061936,25.753008 L100.061936,25.753008 Z M100.016183,27.2628634 C102.395349,27.2628634 103.333289,29.6420293 103.333289,31.5179102 C103.333289,34.0114592 101.892064,35.8187103 99.9704297,35.8187103 C98.0030424,35.8187103 96.60757,33.9885826 96.60757,31.5636634 C96.60757,29.4590166 97.6370169,27.2628634 100.016183,27.2628634 L100.016183,27.2628634 Z M107.121485,37.0769231 L109.111749,37.0769231 L109.111749,31.1747613 C109.111749,30.8316123 109.157502,30.51134 109.203255,30.2368208 C109.477775,28.7269655 110.484345,27.6517655 111.902694,27.6517655 C112.177213,27.6517655 112.383102,27.6746421 112.588992,27.7203953 L112.588992,25.8216378 C112.405979,25.7758846 112.245843,25.753008 112.017077,25.753008 C110.667358,25.753008 109.454898,26.6909485 108.951613,28.1779272 L108.860107,28.1779272 L108.791477,26.0046506 L107.029979,26.0046506 C107.098609,27.0340974 107.121485,28.1550506 107.121485,29.4590166 L107.121485,37.0769231 Z M122.462362,31.9068124 C122.485239,31.700923 122.530992,31.3806507 122.530992,30.9688719 C122.530992,28.9328549 121.570175,25.753008 117.955673,25.753008 C114.730073,25.753008 112.762685,28.3838166 112.762685,31.7237996 C112.762685,35.0637826 114.798702,37.305689 118.207315,37.305689 C119.968813,37.305689 121.181273,36.9396635 121.890447,36.6193912 L121.547298,35.1781656 C120.792371,35.4984379 119.92306,35.7500805 118.481834,35.7500805 C116.468694,35.7500805 114.730073,34.6291273 114.68432,31.9068124 L122.462362,31.9068124 Z M114.707196,30.4655868 C114.867332,29.0701144 115.75952,27.1942336 117.795537,27.1942336 C120.06032,27.1942336 120.609358,29.1844974 120.586481,30.4655868 L114.707196,30.4655868 Z" id="App-Store" fill="#FFFFFF"></path>
                </g>
            </g>
        </g>
    </g>
</svg>