<?xml version="1.0" encoding="UTF-8" standalone="no"?>
<svg width="48px" height="50px" viewBox="0 0 48 50" version="1.1" xmlns="http://www.w3.org/2000/svg" xmlns:xlink="http://www.w3.org/1999/xlink" xmlns:sketch="http://www.bohemiancoding.com/sketch/ns">
    <!-- Generator: Sketch 3.1.1 (8761) - http://www.bohemiancoding.com/sketch -->
    <title>Untitled 2</title>
    <desc>Created with Sketch.</desc>
    <defs></defs>
    <g id="Page-1" stroke="none" stroke-width="1" fill="none" fill-rule="evenodd" sketch:type="MSPage">
        <g id="biggear" sketch:type="MSLayerGroup" fill="#FFFFFF">
            <path d="M42.692,25 C42.628,24.186 42.663,23.362 42.515,22.556 C44.437,21.68 46.402,20.59 48.167,19.329 C47.895,18.116 47.513,16.936 47.054,15.781 C44.811,15.636 42.535,15.767 40.433,16.086 C39.992,15.399 39.627,14.659 39.107,14.025 C38.639,13.353 38.106,12.733 37.542,12.14 C38.631,10.251 39.477,8.317 40.217,6.206 C39.277,5.407 38.293,4.645 37.237,4.002 C35.326,5.218 33.598,6.593 32.047,8.149 C31.324,7.762 30.542,7.514 29.776,7.229 C28.995,6.998 28.204,6.773 27.4,6.632 C27.158,4.539 26.716,2.343 26.066,0.262 C24.833,0.173 23.599,0.136 22.365,0.238 C21.535,2.302 20.953,4.519 20.605,6.632 C19.801,6.773 19.009,6.997 18.228,7.229 C17.461,7.514 16.68,7.763 15.956,8.149 C14.506,6.554 12.89,5.084 11.133,3.778 C10.054,4.391 9.08,5.161 8.104,5.92 C8.709,8.148 9.447,10.175 10.459,12.139 C9.894,12.732 9.362,13.351 8.893,14.024 C8.372,14.658 8.009,15.398 7.567,16.085 C5.498,15.665 3.327,15.423 1.098,15.378 C0.66,16.539 0.209,17.698 -0.063,18.912 C1.655,20.346 3.561,21.571 5.485,22.557 C5.338,23.362 5.373,24.186 5.31,25 C5.373,25.814 5.339,26.638 5.487,27.444 C3.564,28.32 1.599,29.41 -0.166,30.672 C0.106,31.885 0.488,33.066 0.948,34.22 C3.191,34.365 5.467,34.235 7.569,33.916 C8.011,34.602 8.374,35.343 8.895,35.977 C9.364,36.649 9.896,37.268 10.461,37.862 C9.372,39.751 8.525,41.684 7.787,43.796 C8.726,44.596 9.711,45.357 10.767,46 C12.679,44.784 14.405,43.409 15.956,41.854 C16.68,42.241 17.461,42.49 18.228,42.774 C19.009,43.005 19.801,43.23 20.605,43.371 C20.847,45.465 21.288,47.66 21.938,49.741 C23.171,49.831 24.405,49.867 25.638,49.766 C26.468,47.702 27.051,45.484 27.4,43.37 C28.204,43.229 28.995,43.005 29.776,42.773 C30.543,42.489 31.325,42.24 32.047,41.852 C33.498,43.448 35.112,44.918 36.87,46.223 C37.949,45.61 38.922,44.839 39.897,44.081 C39.293,41.852 38.555,39.826 37.543,37.861 C38.107,37.267 38.641,36.648 39.108,35.976 C39.629,35.342 39.993,34.601 40.434,33.914 C42.503,34.335 44.673,34.576 46.904,34.621 C47.341,33.46 47.793,32.301 48.063,31.087 C46.345,29.653 44.44,28.429 42.516,27.443 C42.663,26.638 42.628,25.813 42.692,25 L42.692,25 Z M27.564,35.964 C25.284,36.705 22.717,36.705 20.437,35.964 C18.174,35.198 16.071,33.755 14.681,31.764 C13.229,29.813 12.504,27.434 12.467,25 C12.504,22.566 13.229,20.187 14.681,18.235 C16.071,16.245 18.175,14.802 20.437,14.035 C22.718,13.294 25.284,13.294 27.564,14.035 C29.827,14.802 31.93,16.244 33.319,18.235 C34.772,20.187 35.497,22.566 35.534,25 C35.497,27.434 34.772,29.813 33.319,31.764 C31.931,33.755 29.827,35.198 27.564,35.964 L27.564,35.964 Z" id="Shape" sketch:type="MSShapeGroup"></path>
        </g>
    </g>
</svg>