<?xml version="1.0" encoding="UTF-8" standalone="no"?>
<svg width="142px" height="49px" viewBox="0 0 142 49" version="1.1" xmlns="http://www.w3.org/2000/svg" xmlns:xlink="http://www.w3.org/1999/xlink" xmlns:sketch="http://www.bohemiancoding.com/sketch/ns">
    <!-- Generator: Sketch 3.3.3 (12081) - http://www.bohemiancoding.com/sketch -->
    <title>play-store</title>
    <desc>Created with Sketch.</desc>
    <defs>
        <linearGradient x1="60.0979097%" y1="91.9858265%" x2="33.4967036%" y2="-59.2430671%" id="linearGradient-1">
            <stop stop-color="#D6FFA1" offset="0%"></stop>
            <stop stop-color="#93E2A7" offset="32.64%"></stop>
            <stop stop-color="#00A3B5" offset="100%"></stop>
        </linearGradient>
        <linearGradient x1="-32.0120014%" y1="-128.796925%" x2="80.4537326%" y2="114.272484%" id="linearGradient-2">
            <stop stop-color="#FF177B" offset="0%"></stop>
            <stop stop-color="#FFA976" offset="67.21%"></stop>
            <stop stop-color="#FFEC73" offset="100%"></stop>
        </linearGradient>
        <linearGradient x1="50.8959453%" y1="74.7155744%" x2="-0.0203631119%" y2="-29.4416057%" id="linearGradient-3">
            <stop stop-color="#63FFD4" offset="0%"></stop>
            <stop stop-color="#32A0BA" offset="48.54%"></stop>
            <stop stop-color="#1262A9" offset="83.49%"></stop>
            <stop stop-color="#064AA2" offset="100%"></stop>
        </linearGradient>
        <linearGradient x1="119.293997%" y1="35.6765199%" x2="-22.9945868%" y2="61.1790827%" id="linearGradient-4">
            <stop stop-color="#FF4521" offset="0%"></stop>
            <stop stop-color="#D43E65" offset="34.11%"></stop>
            <stop stop-color="#9F36B9" offset="79.35%"></stop>
            <stop stop-color="#8A33DB" offset="100%"></stop>
        </linearGradient>
    </defs>
    <g id="Symbols" stroke="none" stroke-width="1" fill="none" fill-rule="evenodd" sketch:type="MSPage">
        <g id="Notes" sketch:type="MSArtboardGroup" transform="translate(-548.000000, -465.000000)">
            <g id="Apple-App-Store---Large-+-Google-Play---Large" sketch:type="MSLayerGroup" transform="translate(390.000000, 464.000000)">
                <g id="Google-Play---Large" transform="translate(158.000000, 0.500000)" sketch:type="MSShapeGroup">
                    <rect id="Rectangle-4" stroke="#FFFFFF" x="1" y="2" width="140" height="46" rx="4"></rect>
                    <g id="Text" transform="translate(36.313059, 20.805405)" fill="#FFFFFF">
                        <g id="Google">
                            <path d="M61.4981849,13.8294 L60.4741562,14.7919622 C60.2381348,14.9216108 60.0027478,15.0721297 59.7679952,15.1790108 C59.0567585,15.5009189 58.3334669,15.5818703 57.6907525,15.5818703 C57.0067979,15.5818703 55.9345498,15.5382324 54.8413643,14.7495892 C53.3218175,13.6820432 52.6575313,11.8486216 52.6575313,10.2504649 C52.6575313,6.94157838 55.3597233,5.31875676 57.5632248,5.31875676 C58.3341014,5.31875676 59.1252809,5.51101622 59.7686297,5.91640541 C60.8383399,6.62093514 61.1149672,7.53732973 61.2685081,8.02872973 L56.2346524,10.0556757 L54.5863089,10.183427 C55.1198951,12.8959297 56.9611163,14.4738486 58.9958497,14.4738486 C60.0122648,14.4738486 60.7666452,14.1437189 61.4588479,13.8022054 C61.4582135,13.8028378 61.5971616,13.7307405 61.4981849,13.8294 L61.4981849,13.8294 Z M58.4616291,8.43285405 C58.8708599,8.28486486 59.0827716,8.15648108 59.0827716,7.85987027 C59.0827716,7.00735135 58.1152105,6.02328649 56.9604818,6.02328649 C56.1045868,6.02328649 54.499387,6.68734054 54.499387,8.99255676 C54.499387,9.35241081 54.5418962,9.73566486 54.5641026,10.1189189 L58.4616291,8.43285405 L58.4616291,8.43285405 Z" id="Shape"></path>
                            <path d="M50.9742922,13.6637027 C50.9742922,14.4934541 51.1227573,14.6224703 51.8263804,14.6869784 C52.193102,14.7299838 52.5585546,14.7495892 52.9208348,14.7919622 L52.1290209,15.2618595 L48.3558497,15.2618595 C48.8507335,14.6218378 48.9357519,14.5585946 48.9357519,14.1317027 L48.9357519,13.6554811 L48.9275039,0.966989189 L47.2613953,0.966989189 L48.8646917,0.196686486 L51.9266261,0.196686486 C51.2629744,0.579308108 51.0650209,0.813308108 50.9793679,1.55957838 L50.9742922,13.6637027 L50.9742922,13.6637027 Z" id="Shape"></path>
                            <path d="M45.1226094,6.36606486 C45.6136863,6.76892432 46.6402528,7.62334054 46.6402528,9.24552973 C46.6402528,10.8259784 45.7462898,11.5709838 44.8447132,12.2761459 C44.5680859,12.5537838 44.2451425,12.8548216 44.2451425,13.3202919 C44.2451425,13.7920865 44.5687203,14.0482216 44.8015695,14.2392162 L45.5749839,14.8343351 C46.515263,15.6255081 47.372427,16.3509081 47.372427,17.8244757 C47.372427,19.8324486 45.4233465,21.8562324 41.7402695,21.8562324 C38.6377293,21.8562324 37.1378509,20.3839297 37.1378509,18.8047459 C37.1378509,18.0357081 37.5210686,16.9472919 38.7880978,16.2022865 C40.1154013,15.3934054 41.9141133,15.2852595 42.8765987,15.2220162 C42.5758617,14.8349676 42.2326154,14.4295784 42.2326154,13.7680541 C42.2326154,13.4063027 42.3417436,13.1906432 42.447065,12.9364054 C42.2129469,12.9585405 41.9769255,12.9813081 41.7624758,12.9813081 C39.4917209,12.9813081 38.2075611,11.2927135 38.2075611,9.62815135 C38.2075611,8.64661622 38.6567633,7.5582 39.5792773,6.76829189 C40.7999905,5.76651892 42.2554562,5.59386486 43.4120883,5.59386486 L47.824167,5.59386486 L46.4524508,6.36606486 L45.1226094,6.36606486 L45.1226094,6.36606486 Z M43.604966,15.8405351 C43.4298533,15.8177676 43.3245319,15.8177676 43.1126202,15.8177676 C42.9184735,15.8177676 41.7618414,15.8595081 40.865975,16.1592811 C40.3920286,16.3319351 39.0222159,16.8423081 39.0222159,18.3588811 C39.0222159,19.8716595 40.5011568,20.961973 42.7896768,20.961973 C44.8447132,20.961973 45.9366297,19.9798054 45.9366297,18.6573892 C45.9359952,17.568973 45.2298342,16.9947243 43.604966,15.8405351 L43.604966,15.8405351 Z M44.2210328,11.7853784 C44.7159165,11.2933459 44.7590602,10.6128486 44.7590602,10.2258 C44.7590602,8.69088649 43.8409875,6.30029189 42.0613095,6.30029189 C41.5061515,6.30029189 40.9046774,6.57856216 40.5633345,7.00735135 C40.2016887,7.45195135 40.093195,8.02872973 40.093195,8.58337297 C40.093195,10.0126703 40.9287871,12.383027 42.7687394,12.383027 C43.3048634,12.383027 43.8822278,12.1230973 44.2210328,11.7853784 L44.2210328,11.7853784 Z" id="Shape"></path>
                            <path d="M31.8483053,15.5382324 C28.445028,15.5382324 26.6241097,12.8959297 26.6241097,10.5047027 C26.6241097,7.70998378 28.9132642,5.31875676 32.1693453,5.31875676 C35.3169326,5.31875676 37.2882194,7.77512432 37.2882194,10.3541838 C37.2882194,12.8725297 35.3397734,15.5382324 31.8483053,15.5382324 L31.8483053,15.5382324 Z M34.5257531,13.8116919 C35.0434776,13.1286649 35.169102,12.2761459 35.169102,11.4451297 C35.169102,9.56554054 34.2706977,5.98091351 31.6154562,5.98091351 C30.9092952,5.98091351 30.1980584,6.25602162 29.6854097,6.70568108 C28.8491831,7.45258378 28.7000835,8.39048108 28.7000835,9.3113027 C28.7000835,11.4198324 29.7450495,14.8975784 32.3400167,14.8975784 C33.1781467,14.8975784 34.0327728,14.4934541 34.5257531,13.8116919 L34.5257531,13.8116919 Z" id="Shape"></path>
                            <path d="M20.4539249,15.5382324 C17.0500131,15.5382324 15.2316327,12.8959297 15.2316327,10.5047027 C15.2316327,7.70998378 17.5214216,5.31875676 20.7762338,5.31875676 C23.9219177,5.31875676 25.8913011,7.77512432 25.8913011,10.3541838 C25.8919356,12.8725297 23.9460274,15.5382324 20.4539249,15.5382324 L20.4539249,15.5382324 Z M23.1320072,13.8116919 C23.6459249,13.1286649 23.7740871,12.2761459 23.7740871,11.4451297 C23.7740871,9.56554054 22.8731449,5.98091351 20.2204413,5.98091351 C19.5117424,5.98091351 18.8081193,6.25602162 18.2942016,6.70568108 C17.456706,7.45258378 17.3082409,8.39048108 17.3082409,9.3113027 C17.3082409,11.4198324 18.3576482,14.8975784 20.9481741,14.8975784 C21.7844007,14.8975784 22.6377579,14.4934541 23.1320072,13.8116919 L23.1320072,13.8116919 Z" id="Shape"></path>
                            <path d="M13.8713369,14.7976541 L11.0010113,15.4522216 C9.83803459,15.6349946 8.79370304,15.7962649 7.68782826,15.7962649 C2.15084079,15.7962649 0.0418747764,11.7335189 0.0418747764,8.55491351 C0.0418747764,4.67177838 3.03084556,1.07260541 8.14908527,1.07260541 C9.23211926,1.07260541 10.2745474,1.23134595 11.223709,1.48874595 C12.7280286,1.91057838 13.4310173,2.42917297 13.8713369,2.73400541 L12.2039595,4.31255676 L11.5009708,4.4694 L12.0021992,3.67253514 C11.3233202,3.01164324 10.075325,1.79168108 7.70686225,1.79168108 C4.54024091,1.79168108 2.15084079,4.19112973 2.15084079,7.69417297 C2.15084079,11.4565135 4.87904592,14.9956054 9.25305665,14.9956054 C10.5384854,14.9956054 11.2002338,14.7382054 11.8010733,14.4978811 L11.8010733,11.2724757 L8.77086225,11.4350108 L10.3773309,10.5749027 L14.6301586,10.5749027 L14.1105307,11.0738919 C13.9696792,11.1927892 13.9512797,11.2332649 13.9119428,11.3926378 C13.8910054,11.5747784 13.8719714,12.1540865 13.8719714,12.3577297 L13.8719714,14.7976541 L13.8713369,14.7976541 Z" id="Shape"></path>
                        </g>
                        <g id="Play" transform="translate(65.618962, 0.897297)">
                            <path d="M2.05067621,13.023173 L2.05067621,18.4595622 L0.967642218,18.4595622 L0.967642218,4.627 L2.05067621,4.627 L2.05067621,6.20175676 C2.75556828,5.18417297 4.04480382,4.37655676 5.54277877,4.37655676 C8.22784019,4.37655676 10.0373381,6.4072973 10.0373381,9.62195135 C10.0373381,12.8151027 8.22784019,14.8882162 5.54277877,14.8882162 C4.12918784,14.8888486 2.86279308,14.1621838 2.05067621,13.023173 L2.05067621,13.023173 Z M8.87372689,9.62258378 C8.87372689,7.19973514 7.60669767,5.35176757 5.36005247,5.35176757 C3.96486106,5.35176757 2.63057841,6.44524324 2.05067621,7.39768649 L2.05067621,11.8253459 C2.63057841,12.7803189 3.96486106,13.9130054 5.36005247,13.9130054 C7.60669767,13.9130054 8.87372689,12.049227 8.87372689,9.62258378 L8.87372689,9.62258378 Z" id="Shape"></path>
                            <path d="M11.5162791,14.6396703 L11.5162791,0.807740541 L12.5986786,0.807740541 L12.5986786,14.6396703 L11.5162791,14.6396703 L11.5162791,14.6396703 Z" id="Shape"></path>
                            <path d="M24.7512463,17.5646703 C24.982192,17.6671243 25.3774645,17.731 25.6287132,17.731 C26.291096,17.731 26.752353,17.4609514 27.1666595,16.5066108 L27.9565701,14.7231514 L23.6897841,4.627 L24.897808,4.627 L28.5574097,13.3760703 L32.1814812,4.627 L33.4066357,4.627 L28.2033775,16.8411676 C27.6634466,18.0997081 26.8138962,18.7049459 25.6471127,18.7049459 C25.2968873,18.7049459 24.8356303,18.6423351 24.5647132,18.5601189 L24.7512463,17.5646703 L24.7512463,17.5646703 Z" id="Shape"></path>
                            <path d="M21.5877973,14.6099459 C21.5154681,14.2627405 21.460904,13.9572757 21.4209326,13.7011405 C21.3873059,13.4462703 21.3689064,13.1857081 21.3689064,12.9207189 C20.9971091,13.4639784 20.4711366,13.9161676 19.7992367,14.2728595 C19.1267024,14.6308162 18.4884293,14.8072649 17.6115969,14.8072649 C16.5564794,14.8072649 15.7380179,14.5486 15.15304,14.0236811 C14.5705999,13.4993946 14.2774764,12.789173 14.2774764,11.8904865 C14.2774764,10.9930649 14.7019344,10.2645027 15.5483125,9.70732973 C16.3946905,9.14762703 17.4891449,8.86998919 18.8424615,8.86998919 L21.3682719,8.86998919 L21.3682719,7.62536216 C21.3682719,6.90881622 21.1227335,6.34595135 20.6341944,5.93676757 C20.1431175,5.52821622 19.4540871,5.32077838 18.560124,5.32077838 C17.7435659,5.32077838 17.0811831,5.50987568 16.5767823,5.87795135 C16.0768229,6.25361622 15.8255742,6.71908649 15.8255742,7.28005405 L14.7171616,7.28005405 L14.6943208,7.2262973 C14.653715,6.47054054 15.0014025,5.80648649 15.7392868,5.23413514 C16.4733643,4.66178378 17.4364842,4.37402703 18.6210328,4.37402703 C19.8011401,4.37402703 20.7566464,4.65735676 21.4774001,5.22275135 C22.1968849,5.78245405 22.5578962,6.59133514 22.5578962,7.64876216 L22.5578962,12.5886919 C22.5578962,12.9434865 22.5743924,13.2862649 22.6194395,13.6201892 C22.665121,13.9547459 22.7380847,14.2886703 22.835158,14.6112108 L21.5877973,14.6112108 L21.5877973,14.6099459 Z M17.7448348,13.8232 C18.664811,13.8232 19.3259249,13.6182919 20.002266,13.2129027 C20.6735313,12.8094108 21.1297126,12.2838595 21.3695408,11.6476324 L21.3695408,9.72503784 L18.8316756,9.72503784 C17.8622111,9.72503784 17.0596112,9.9388 16.4283172,10.3707514 C15.7957543,10.8008054 15.4747144,11.3212973 15.4747144,11.9265351 C15.4747144,12.4969892 15.6777436,12.9542378 16.0818986,13.3001784 C16.4860537,13.6499135 17.0393083,13.8232 17.7448348,13.8232 L17.7448348,13.8232 Z" id="Shape"></path>
                        </g>
                    </g>
                    <g id="color" transform="translate(10.299940, 19.540541)">
                        <path d="M11.9127394,11.2206162 L15.3870769,7.75741622 L15.385808,7.75741622 L11.9127394,11.2206162 L0.824171735,0.168859459 L0.823537269,0.168859459 L11.9127394,11.2225135 L0.805772212,22.2938757 L11.9127394,11.2225135 L15.4023041,14.7008919 L15.4042075,14.7008919 L11.9127394,11.2206162 Z" id="Shape"></path>
                        <path d="M15.385808,7.75741622 L1.84883482,0.337718919 C1.46561717,0.128383784 1.11095051,0.0796864865 0.824171735,0.168227027 L11.9133739,11.2206162 L15.385808,7.75741622 L15.385808,7.75741622 Z" id="Shape" fill="url(#linearGradient-1)"></path>
                        <path d="M15.4042075,14.7008919 L20.0250256,12.168 C20.9621324,11.6525676 20.9621324,10.8133297 20.0250256,10.2997946 L15.3870769,7.75741622 L11.9127394,11.2206162 L15.4042075,14.7008919 L15.4042075,14.7008919 Z" id="Shape" fill="url(#linearGradient-2)"></path>
                        <path d="M0.823537269,0.168859459 C0.411768634,0.297243243 0.145292785,0.712751351 0.145292785,1.34138919 L0.14783065,21.1264054 C0.14783065,21.7474541 0.406058438,22.1572703 0.806406679,22.2938757 L11.9133739,11.2225135 L0.823537269,0.168859459 L0.823537269,0.168859459 Z" id="Shape" fill="url(#linearGradient-3)"></path>
                        <path d="M0.805772212,22.2938757 C1.09381992,22.3912703 1.45546571,22.3457351 1.84820036,22.1307081 L15.4023041,14.7008919 L11.9127394,11.2225135 L0.805772212,22.2938757 L0.805772212,22.2938757 Z" id="Shape" fill="url(#linearGradient-4)"></path>
                    </g>
                    <g id="Get-It-On" transform="translate(36.313059, 7.524324)" fill="#FFFFFF">
                        <path d="M0.0152271914,3.63964865 C0.0152271914,1.51404324 1.59948956,0.147356757 3.57014192,0.147356757 C4.89046631,0.147356757 5.75334049,0.77472973 6.29200239,1.5444 L5.32697913,2.10157297 C4.96152654,1.59499459 4.32135003,1.20035676 3.57014192,1.20035676 C2.23014908,1.20035676 1.23403697,2.21288108 1.23403697,3.63964865 C1.23403697,5.04681081 2.22951461,6.07894054 3.57014192,6.07894054 C4.26107573,6.07894054 4.87016339,5.76525405 5.17470722,5.47180541 L5.17470722,4.42892432 L3.14378056,4.42892432 L3.14378056,3.38667568 L6.35291115,3.38667568 L6.35291115,5.90691892 C5.69306619,6.64623243 4.73819439,7.14205946 3.57014192,7.14205946 C1.59948956,7.14205946 0.0152271914,5.75576757 0.0152271914,3.63964865 L0.0152271914,3.63964865 Z" id="Shape"></path>
                        <path d="M7.82233512,7.01051351 L7.82233512,0.258032432 L12.4628217,0.258032432 L12.4628217,1.30091351 L9.01005605,1.30091351 L9.01005605,3.042 L12.3923959,3.042 L12.3923959,4.08488108 L9.01005605,4.08488108 L9.01005605,5.96826486 L12.4628217,5.96826486 L12.4628217,7.01051351 L7.82233512,7.01051351 L7.82233512,7.01051351 Z" id="Shape"></path>
                        <path d="M15.7512606,7.01051351 L15.7512606,1.30154595 L13.700031,1.30154595 L13.700031,0.258664865 L18.9908456,0.258664865 L18.9908456,1.30154595 L16.9402504,1.30154595 L16.9402504,7.01051351 L15.7512606,7.01051351 L15.7512606,7.01051351 Z" id="Shape"></path>
                        <path d="M23.1205868,7.01051351 L23.1205868,0.258032432 L24.3083077,0.258032432 L24.3083077,7.01051351 L23.1205868,7.01051351 L23.1205868,7.01051351 Z" id="Shape"></path>
                        <path d="M27.617684,7.01051351 L27.617684,1.30154595 L25.5664544,1.30154595 L25.5664544,0.258664865 L30.8572689,0.258664865 L30.8572689,1.30154595 L28.8060394,1.30154595 L28.8060394,7.01051351 L27.617684,7.01051351 L27.617684,7.01051351 Z" id="Shape"></path>
                        <path d="M34.6926178,3.63964865 C34.6926178,1.62471892 36.1246082,0.147356757 38.1561694,0.147356757 C40.1763101,0.147356757 41.6190865,1.62535135 41.6190865,3.63964865 C41.6190865,5.65394595 40.1763101,7.13194054 38.1561694,7.13194054 C36.1239738,7.13194054 34.6926178,5.65394595 34.6926178,3.63964865 L34.6926178,3.63964865 Z M40.4002767,3.63964865 C40.4002767,2.24260541 39.5164651,1.20035676 38.1561694,1.20035676 C36.7850877,1.20035676 35.9114275,2.24260541 35.9114275,3.63964865 C35.9114275,5.02594054 36.7850877,6.07894054 38.1561694,6.07894054 C39.5164651,6.07894054 40.4002767,5.02594054 40.4002767,3.63964865 L40.4002767,3.63964865 Z" id="Shape"></path>
                        <path d="M47.728997,7.01051351 L44.1950197,2.18189189 L44.1950197,7.01051351 L43.0072987,7.01051351 L43.0072987,0.258032432 L44.2261085,0.258032432 L47.6890256,4.9355027 L47.6890256,0.258032432 L48.877381,0.258032432 L48.877381,7.01051351 L47.728997,7.01051351 L47.728997,7.01051351 Z" id="Shape"></path>
                    </g>
                    <path d="M10.6191039,40.995639 C10.2285619,40.8904429 9.97435897,40.5027041 9.97435897,39.9026958 L9.97435897,20.0973042 C9.97435897,19.5416051 10.1895963,19.1668265 10.530789,19.0305642 L10.530789,19.0305642 L20.2635661,30.0678276 L10.6191039,40.995639 L10.6191039,40.995639 Z M11.9588907,40.575234 L23.6740827,33.9354564 L20.8206812,30.6996128 L11.9588907,40.575234 L11.9588907,40.575234 Z M23.7547546,26.1120809 L12.2028263,19.563314 L20.8375729,29.4174401 L23.7547546,26.1120809 L23.7547546,26.1120809 Z M24.5385435,26.5564095 L29.0639529,29.1218557 C29.920785,29.6075923 29.9286208,30.3905942 29.0639529,30.8806589 L24.4240551,33.5103973 L21.3976615,30.0566232 L24.5385435,26.5564095 L24.5385435,26.5564095 Z" id="google-play" fill="#FFFFFF"></path>
                </g>
            </g>
        </g>
    </g>
</svg>