<?xml version="1.0" encoding="UTF-8" standalone="no"?>
<svg width="34px" height="34px" viewBox="0 0 34 34" version="1.1" xmlns="http://www.w3.org/2000/svg" xmlns:xlink="http://www.w3.org/1999/xlink" xmlns:sketch="http://www.bohemiancoding.com/sketch/ns">
    <!-- Generator: Sketch 3.1.1 (8761) - http://www.bohemiancoding.com/sketch -->
    <title>Untitled 3</title>
    <desc>Created with Sketch.</desc>
    <defs></defs>
    <g id="Page-1" stroke="none" stroke-width="1" fill="none" fill-rule="evenodd" sketch:type="MSPage">
        <g id="smallgear" sketch:type="MSLayerGroup" fill="#FFFFFF">
            <path d="M27.993,20.748 C28.267,19.944 28.437,19.112 28.55,18.273 C28.622,17.429 28.639,16.58 28.545,15.737 C30.374,14.892 32.117,13.737 33.695,12.292 C33.292,10.906 32.745,9.558 32.009,8.319 C29.798,8.301 27.675,8.661 25.736,9.359 C25.193,8.708 24.548,8.149 23.872,7.642 C23.194,7.132 22.449,6.724 21.682,6.364 C21.855,4.379 21.731,2.266 21.264,0.193 C19.869,-0.173 18.436,-0.326 17,-0.347 C15.871,1.57 15.122,3.592 14.749,5.601 C13.922,5.785 13.104,6.021 12.332,6.371 C11.561,6.718 10.81,7.124 10.139,7.641 C8.481,6.464 6.624,5.552 4.585,4.895 C3.569,5.917 2.71,7.089 1.976,8.333 C3.072,10.268 4.446,11.927 6.009,13.254 C5.735,14.056 5.565,14.888 5.453,15.728 C5.379,16.572 5.364,17.421 5.457,18.264 C3.627,19.111 1.884,20.263 0.306,21.708 C0.709,23.095 1.257,24.442 1.992,25.681 C4.202,25.7 6.325,25.34 8.265,24.642 C8.807,25.292 9.453,25.853 10.129,26.36 C10.807,26.869 11.553,27.277 12.32,27.637 C12.147,29.621 12.27,31.734 12.737,33.808 C14.133,34.175 15.565,34.328 17.002,34.348 C18.131,32.431 18.88,30.409 19.253,28.4 C20.079,28.217 20.897,27.98 21.669,27.631 C22.44,27.283 23.191,26.877 23.863,26.361 C25.521,27.538 27.377,28.45 29.417,29.106 C30.433,28.085 31.291,26.913 32.027,25.669 C30.932,23.733 29.556,22.074 27.993,20.748 L27.993,20.748 Z M21.915,17.542 C21.709,19.257 20.603,20.843 18.98,21.52 C17.425,22.233 15.445,22.014 14.084,20.982 C12.647,19.967 11.913,18.177 12.086,16.459 C12.291,14.744 13.398,13.158 15.02,12.48 C16.574,11.769 18.553,11.986 19.916,13.02 C21.354,14.034 22.088,15.825 21.915,17.542 L21.915,17.542 Z" id="Shape" sketch:type="MSShapeGroup"></path>
        </g>
    </g>
</svg>